<svg width="601" height="600" viewBox="0 0 601 600" fill="none" xmlns="http://www.w3.org/2000/svg">
<rect width="600" height="600" transform="translate(0.382996)" fill="#ECEBEB"/>
<path d="M388.617 257.404C330.809 257.066 214.989 256.593 214.177 257.404L301.397 424.745L388.617 257.404Z" fill="#F1A026"/>
<path d="M301.397 246.248V179.312V173.227L374.419 246.248H301.397Z" fill="#F1A026"/>
<path d="M301.397 246.248V179.312V173.227L228.376 246.248H301.397Z" fill="#FFCB21"/>
<path d="M216.206 242.191C223.981 216.499 239.532 163.896 239.532 159.028H296.326L216.206 242.191Z" fill="#FFB039"/>
<path d="M383.546 242.191C375.77 216.499 360.22 163.896 360.22 159.028H303.425L383.546 242.191Z" fill="#F1A026"/>
<path d="M145.383 239.446L211.486 167.559C214.177 164.632 219.034 166.921 218.491 170.859L208.575 242.746C208.298 244.753 206.583 246.248 204.557 246.248H148.369C144.836 246.248 142.992 242.046 145.383 239.446Z" fill="#FFD12A"/>
<path d="M453.355 239.446L387.252 167.559C384.561 164.632 379.704 166.921 380.247 170.859L390.162 242.746C390.439 244.753 392.155 246.248 394.181 246.248H450.369C453.901 246.248 455.746 242.046 453.355 239.446Z" fill="#F16F26"/>
<path d="M142.878 259.038L253.463 387.351C256.472 390.842 262.048 387.407 260.283 383.149L207.101 254.837C206.473 253.321 204.994 252.333 203.354 252.333H145.951C142.48 252.333 140.612 256.409 142.878 259.038Z" fill="#FFB039"/>
<path d="M462.652 252.333L329.794 406.489L393.688 252.333H462.652Z" fill="#F16F26"/>
<path d="M231.419 161.057L205.498 252.777C205.21 253.793 205.331 254.881 205.833 255.81L295.857 422.306C297.379 425.121 301.408 425.148 302.968 422.354L395.924 255.806C396.441 254.88 396.575 253.789 396.297 252.765L371.376 161.057" stroke="#242222" stroke-width="24.3404"/>
<path d="M129.53 256.085L298.338 439.733C299.951 441.488 302.723 441.48 304.326 439.716L471.265 256.084C472.698 254.508 472.668 252.093 471.197 250.553L383.024 158.255C382.259 157.453 381.199 157 380.091 157H220.675C219.567 157 218.507 157.453 217.742 158.255L129.583 250.538C128.106 252.084 128.083 254.511 129.53 256.085Z" stroke="#242222" stroke-width="24.3404"/>
<path d="M133.043 251.319H465.695" stroke="#242222" stroke-width="24.3404"/>
<path d="M215.192 252.333L298.546 166.037C300.115 164.412 302.71 164.383 304.316 165.971L391.66 252.333" stroke="#242222" stroke-width="24.3404"/>
</svg>
