<svg width="1000" height="1000" viewBox="0 0 1000 1000" fill="none" xmlns="http://www.w3.org/2000/svg">
<rect width="1000" height="1000" fill="white"/>
<g clip-path="url(#clip0_9_750)">
<path d="M780.304 359.24H216.892C181.605 359.24 153 387.846 153 423.132V576.868C153 612.154 181.605 640.759 216.892 640.759H780.304C815.591 640.759 844.196 612.154 844.196 576.868V423.132C844.196 387.846 815.591 359.24 780.304 359.24Z" fill="black"/>
<path d="M269.681 564.487C267.284 564.487 265.224 563.768 263.499 562.33C261.773 560.988 261.007 558.209 261.199 553.993C261.39 549.297 261.726 544.409 262.204 539.329C262.684 534.25 263.211 529.506 263.786 525.097C265.032 515.417 265.32 507.942 264.648 502.672C264.074 497.304 262.588 493.471 260.193 491.171C257.892 488.871 254.778 487.338 250.848 486.571C248.931 486.187 247.397 485.468 246.248 484.414C245.098 483.265 244.522 481.779 244.522 479.958C244.522 477.562 245.481 475.98 247.397 475.214C249.219 474.447 251.567 474.064 254.442 474.064C256.646 474.064 259.474 474.208 262.923 474.495C266.47 474.687 270.255 474.83 274.281 474.926C277.634 463.905 281.42 454.8 285.637 447.613C289.854 440.425 294.454 434.77 299.438 430.649C304.422 426.432 309.692 423.509 315.251 421.88C320.81 420.155 326.56 419.292 332.502 419.292C339.882 419.292 343.571 421.928 343.571 427.199C343.571 429.787 342.325 431.751 339.833 433.093C337.342 434.435 333.556 435.537 328.477 436.4C322.439 437.454 317.12 439.418 312.52 442.294C308.016 445.169 304.038 449.242 300.588 454.513C297.233 459.784 294.262 466.588 291.675 474.926C304.996 474.639 315.922 473.92 324.452 472.77C332.981 471.62 339.546 470.518 344.146 469.464C348.842 468.313 352.101 467.739 353.922 467.739C356.509 467.739 358.091 468.362 358.665 469.607C359.336 470.853 359.672 472.195 359.672 473.632C359.672 475.261 358.138 476.939 355.071 478.664C353.059 479.814 349.848 481.108 345.44 482.546C341.032 483.887 335.856 485.229 329.914 486.571C323.972 487.816 317.695 488.871 311.082 489.733C304.565 490.5 298.192 490.883 291.963 490.883C290.429 490.883 289.039 490.883 287.794 490.883C286.739 496.442 285.685 502.336 284.631 508.565C283.672 514.699 282.81 520.689 282.044 526.535C281.277 532.381 280.605 537.7 280.031 542.492C279.551 547.284 279.264 551.118 279.168 553.993C279.072 557.539 278.162 560.174 276.437 561.899C274.712 563.624 272.46 564.487 269.681 564.487ZM356.125 553.13C349.321 553.13 343.858 550.734 339.737 545.942C335.616 541.054 333.555 534.537 333.555 526.391C333.555 523.803 333.891 521.168 334.562 518.484C335.328 515.801 336.239 513.31 337.293 511.009C336.718 510.147 336.239 509.045 335.855 507.703C335.568 506.265 335.424 504.588 335.424 502.672C335.424 496.442 336.526 490.74 338.73 485.564C340.935 480.294 343.906 475.741 347.644 471.908C351.381 468.074 355.503 465.103 360.007 462.994C364.511 460.886 369.063 459.832 373.663 459.832C381.522 459.832 387.943 462.467 392.927 467.739C398.007 473.009 400.546 481.204 400.546 492.321C400.546 497.88 399.683 503.534 397.958 509.284C396.233 515.035 393.885 520.546 390.914 525.816C388.039 530.992 384.685 535.639 380.852 539.761C377.114 543.882 373.089 547.14 368.775 549.536C364.559 551.932 360.342 553.13 356.125 553.13ZM353.825 504.54C354.304 505.594 354.544 506.84 354.544 508.277C354.544 509.716 354.256 511.201 353.681 512.734C353.106 514.268 352.532 516.328 351.956 518.916C351.381 521.408 351.093 525.001 351.093 529.698C351.093 530.943 351.238 531.998 351.525 532.86C351.908 533.627 352.723 534.01 353.969 534.01C357.227 534.01 360.294 532.956 363.17 530.847C366.14 528.739 368.775 525.96 371.076 522.51C373.471 519.06 375.484 515.226 377.114 511.009C378.839 506.697 380.133 502.336 380.995 497.927C381.953 493.423 382.432 489.254 382.432 485.421C382.432 482.928 381.953 481.204 380.995 480.245C380.037 479.287 378.359 478.808 375.964 478.808C372.705 478.808 369.351 479.862 365.9 481.97C362.547 483.983 359.719 486.762 357.419 490.309C355.119 493.758 353.969 497.688 353.969 502.096C353.969 502.959 353.921 503.773 353.825 504.54ZM428.587 554.711C426.19 554.711 424.13 553.848 422.405 552.124C420.775 550.399 419.961 547.907 419.961 544.648C419.961 543.21 420.152 540.862 420.536 537.604C421.016 534.25 421.59 530.416 422.261 526.104C423.027 521.791 423.746 517.287 424.418 512.591C425.184 507.895 425.807 503.438 426.286 499.221C426.861 495.005 427.245 491.41 427.436 488.439C427.628 484.798 428.587 482.21 430.312 480.676C432.036 479.047 434.097 478.232 436.493 478.232C438.41 478.232 440.135 478.712 441.668 479.671C443.298 480.533 444.304 482.401 444.687 485.276C445.166 488.056 445.214 492.081 444.831 497.353C449.048 489.686 453.313 482.833 457.625 476.795C462.034 470.757 466.634 465.965 471.426 462.42C479.381 456.382 486.568 453.363 492.989 453.363C496.632 453.363 499.027 454.177 500.177 455.807C501.328 457.436 501.902 459.113 501.902 460.838C501.902 461.988 501.614 463.043 501.04 464.001C500.56 464.96 499.507 465.965 497.877 467.02C496.248 468.074 493.756 469.464 490.402 471.189C485.898 473.489 481.441 476.508 477.033 480.245C472.72 483.983 468.407 488.775 464.094 494.621C459.782 500.467 455.421 507.655 451.012 516.185C446.604 524.714 442.051 534.873 437.356 546.661C436.493 549.919 435.247 552.076 433.618 553.13C432.084 554.184 430.408 554.711 428.587 554.711ZM623.729 545.08C623.154 550.255 620.087 552.843 614.529 552.843C611.654 552.843 609.353 551.98 607.628 550.255C605.999 548.529 605.184 546.038 605.184 542.779C605.184 537.221 605.424 531.279 605.903 524.954C606.478 518.533 607.15 512.064 607.916 505.547C608.779 499.03 609.594 492.8 610.36 486.858C606.91 491.842 603.268 496.969 599.434 502.24C595.601 507.511 591.767 512.638 587.934 517.622C584.1 522.606 580.411 527.11 576.864 531.135C573.414 535.065 570.251 538.228 567.376 540.623C564.501 542.924 562.106 544.073 560.189 544.073C555.589 544.073 551.611 542.396 548.257 539.042C544.902 535.592 543.226 531.231 543.226 525.96C543.226 524.139 543.417 521.695 543.801 518.629C544.184 515.466 544.663 512.111 545.238 508.565C545.813 505.02 546.292 501.665 546.676 498.503C547.059 495.34 547.25 492.848 547.25 491.027C547.25 491.027 547.25 490.931 547.25 490.74C547.346 490.26 547.25 490.021 546.964 490.021C546.58 490.021 545.526 491.314 543.801 493.902C542.076 496.394 539.967 499.652 537.475 503.677C534.983 507.703 532.348 511.92 529.568 516.328C526.885 520.736 524.345 524.858 521.95 528.691C519.649 532.525 517.733 535.496 516.2 537.604C514.091 540.862 512.126 542.924 510.305 543.786C508.484 544.648 506.376 545.08 503.98 545.08C500.626 545.08 497.99 543.978 496.074 541.773C494.253 539.473 493.342 536.262 493.342 532.141C493.342 530.416 493.63 527.733 494.204 524.091C494.876 520.45 495.69 516.424 496.648 512.016C497.607 507.511 498.565 503.15 499.523 498.934C500.578 494.621 501.489 490.979 502.255 488.008C503.117 484.079 504.315 481.348 505.849 479.814C507.478 478.185 509.538 477.37 512.031 477.37C517.876 477.37 520.8 480.245 520.8 485.995C520.8 487.05 520.464 488.775 519.793 491.171C519.122 493.567 518.308 496.346 517.35 499.509C516.391 502.672 515.385 505.93 514.33 509.284C513.276 512.542 512.413 515.609 511.743 518.484C514.043 514.459 516.535 510.147 519.218 505.547C521.901 500.947 524.633 496.442 527.412 492.034C530.287 487.625 533.115 483.6 535.894 479.958C538.769 476.316 541.596 473.441 544.375 471.332C547.154 469.128 549.79 468.026 552.283 468.026C554.774 468.026 557.218 468.936 559.613 470.757C562.01 472.482 563.974 474.734 565.508 477.514C567.137 480.198 567.952 483.073 567.952 486.14C567.952 489.015 567.568 492.465 566.802 496.49C566.035 500.515 565.173 504.732 564.214 509.14C563.256 513.549 562.584 517.861 562.202 522.079C565.46 518.437 568.91 514.316 572.552 509.716C576.194 505.02 579.931 500.179 583.765 495.196C587.598 490.213 591.336 485.372 594.978 480.676C598.716 475.98 602.166 471.716 605.329 467.882C608.587 464.049 611.462 461.03 613.954 458.826C616.446 456.525 618.362 455.376 619.704 455.376C623.634 455.376 626.7 456.43 628.905 458.538C631.205 460.55 632.354 464.097 632.354 469.176C632.354 472.339 632.115 476.46 631.636 481.539C631.252 486.619 630.678 492.129 629.91 498.072C629.24 503.917 628.473 509.859 627.611 515.897C626.844 521.839 626.125 527.349 625.455 532.429C624.783 537.509 624.209 541.725 623.729 545.08Z" fill="white"/>
<path d="M715.101 534.223C713.576 532.697 711.406 530.234 708.591 526.833C705.893 523.431 702.785 519.501 699.266 515.044C696.451 520.205 693.812 524.897 691.348 529.12C689.002 533.343 687.242 536.568 686.07 538.797C684.662 541.377 682.961 543.782 680.967 546.011C679.09 548.123 676.744 549.178 673.929 549.178C672.17 549.178 670.644 548.532 669.355 547.243C668.181 545.952 667.595 544.428 667.595 542.668C667.595 539.97 668.944 535.454 671.642 529.12C674.339 522.668 677.624 515.63 681.495 508.006C672.228 507.888 664.897 507.243 659.501 506.071C654.223 504.897 650.41 503.489 648.065 501.848C645.835 500.205 644.722 498.505 644.722 496.745C644.722 494.399 646.598 492.288 650.352 490.411C654.105 488.417 660.205 487.42 668.651 487.42C672.404 487.42 675.982 487.42 679.384 487.42C675.513 481.907 672.287 476.98 669.706 472.64C667.243 468.3 666.012 465.426 666.012 464.019C666.012 460.969 666.656 458.622 667.947 456.981C669.237 455.221 670.938 454.342 673.05 454.342C675.043 454.342 677.096 454.751 679.208 455.573C681.319 456.394 683.372 458.329 685.366 461.379C686.656 463.256 688.357 465.66 690.469 468.593C692.58 471.526 694.925 474.752 697.506 478.271C702.667 469.121 706.48 462.787 708.943 459.268C710.351 457.157 711.934 455.221 713.694 453.462C715.57 451.702 717.799 450.823 720.38 450.823C722.256 450.823 723.664 451.702 724.603 453.462C725.658 455.103 726.186 456.981 726.186 459.092C726.186 461.204 724.955 464.957 722.491 470.353C720.145 475.748 717.213 481.79 713.694 488.476C722.022 488.945 728.532 489.589 733.224 490.411C737.916 491.115 741.318 491.936 743.429 492.874C745.541 493.695 746.889 494.575 747.476 495.514C748.062 496.334 748.356 497.155 748.356 497.977C748.356 498.681 748.062 499.502 747.476 500.44C746.889 501.261 745.599 502.141 743.605 503.079C741.728 503.9 738.737 504.663 734.632 505.367C730.526 506.071 724.896 506.657 717.741 507.126C721.494 512.757 724.661 517.741 727.242 522.082C729.822 526.422 731.113 529.354 731.113 530.879C731.113 533.108 730.409 535.043 729.001 536.686C727.594 538.327 725.834 539.149 723.723 539.149C721.963 539.149 720.38 538.621 718.972 537.566C717.682 536.51 716.391 535.395 715.101 534.223Z" fill="white"/>
</g>
<defs>
<clipPath id="clip0_9_750">
<rect width="695" height="281.519" fill="white" transform="translate(153 359.24)"/>
</clipPath>
</defs>
</svg>
