<svg width="512" height="512" viewBox="0 0 512 512" fill="none" xmlns="http://www.w3.org/2000/svg">
<rect width="512" height="512" fill="white"/>
<path d="M224.125 391.469C187.941 391.469 153.92 377.38 128.335 351.79C102.75 326.199 88.6558 292.183 88.6558 256C88.6558 219.817 102.745 185.795 128.335 160.21C153.925 134.625 187.941 120.531 224.125 120.531C273.85 120.531 319.495 147.699 343.247 191.442C344.182 193.164 346.663 197.732 347.715 202.673C348.867 208.087 348.31 213.245 347.8 215.439C344.57 229.305 331.963 243.537 312.859 255.118C336.006 261.259 348.92 267.895 353.866 275.959C356.209 279.779 356.863 283.965 355.774 288.082C348.735 317.057 331.952 343.306 308.503 361.995C296.768 371.35 283.678 378.634 269.594 383.649C255.027 388.839 239.727 391.469 224.13 391.469H224.125ZM224.125 136.469C192.196 136.469 162.181 148.9 139.603 171.478C117.025 194.056 104.593 224.072 104.593 256C104.593 287.928 117.025 317.944 139.603 340.522C162.181 363.1 192.196 375.531 224.125 375.531C251.479 375.531 277.223 366.537 298.563 349.527C312.381 338.514 323.575 324.537 331.336 308.859C327.357 310.203 322.932 311.34 318.071 312.254C298.638 315.914 274.413 315.373 253.269 310.809C221.282 303.908 205.791 290.68 198.428 280.799C196.68 278.456 196.356 275.343 197.589 272.687C198.816 270.036 201.398 268.267 204.32 268.081C252.398 265.047 282.541 253.572 299.365 244.477C313.359 236.912 329.355 224.359 332.276 211.821C332.415 211.147 332.648 208.453 332.128 205.988C331.554 203.3 329.875 200.208 329.243 199.045C308.28 160.444 268.006 136.469 224.125 136.469Z" fill="black" stroke="black" stroke-width="0.53125"/>
<path d="M170.001 257.541C178.832 257.541 185.992 250.381 185.992 241.55C185.992 232.719 178.832 225.559 170.001 225.559C161.169 225.559 154.01 232.719 154.01 241.55C154.01 250.381 161.169 257.541 170.001 257.541Z" fill="black" stroke="black" stroke-width="0.53125"/>
<path d="M414.588 250.645H380.551C376.153 250.645 372.583 254.215 372.583 258.614C372.583 263.013 376.153 266.583 380.551 266.583H414.588C418.987 266.583 422.557 263.013 422.557 258.614C422.557 254.215 418.987 250.645 414.588 250.645Z" fill="black" stroke="black" stroke-width="0.53125"/>
<path d="M406.62 309.805L377.141 285.24C373.762 282.424 368.736 282.881 365.915 286.26C363.094 289.639 363.557 294.664 366.935 297.485L396.414 322.05C397.902 323.293 399.714 323.899 401.509 323.899C403.794 323.899 406.057 322.922 407.634 321.03C410.45 317.652 409.993 312.626 406.614 309.805H406.62Z" fill="black" stroke="black" stroke-width="0.53125"/>
<path d="M372.046 233.831C373.847 233.831 375.653 233.225 377.141 231.982L406.62 207.417C409.999 204.602 410.456 199.576 407.64 196.192C404.824 192.813 399.799 192.356 396.415 195.172L366.936 219.737C363.557 222.553 363.1 227.578 365.916 230.962C367.493 232.853 369.757 233.831 372.041 233.831H372.046Z" fill="black" stroke="black" stroke-width="0.53125"/>
</svg>
