<svg width="1000" height="1000" viewBox="0 0 1000 1000" fill="none" xmlns="http://www.w3.org/2000/svg">
<rect width="1000" height="1000" fill="#EEECFD"/>
<rect x="156.8" y="156.8" width="686.4" height="686.4" rx="343.2" fill="url(#paint0_linear_193_103)"/>
<rect x="156.8" y="156.8" width="686.4" height="686.4" rx="343.2" stroke="#6149F6" stroke-width="17.6"/>
<path d="M558.59 323.22C556.222 310.879 549.566 299.773 539.799 291.865C530.033 283.958 517.785 279.759 505.221 280.011C492.657 280.262 480.587 284.948 471.145 293.241C461.702 301.533 455.496 312.896 453.624 325.322C451.752 337.748 454.334 350.436 460.913 361.142C467.493 371.849 477.646 379.883 489.578 383.826C501.51 387.769 514.451 387.365 526.115 382.687C537.778 378.008 547.411 369.357 553.31 358.261C585.676 368.259 613.996 388.343 634.135 415.581C654.273 442.819 665.175 475.783 665.246 509.657V510.061C677.4 510.863 689.252 514.196 700.042 519.847C700.235 516.45 700.464 513.053 700.464 509.657C700.367 467.365 686.454 426.263 660.843 392.608C635.232 358.952 599.326 334.587 558.59 323.22Z" fill="white"/>
<path fill-rule="evenodd" clip-rule="evenodd" d="M505.045 271.212C519.684 270.919 533.956 275.812 545.337 285.026C555.286 293.081 562.465 303.985 565.957 316.209C606.475 328.645 642.127 353.481 667.846 387.279C694.618 422.461 709.162 465.427 709.264 509.636L709.264 509.657C709.264 512.878 709.075 516.104 708.904 519.029C708.878 519.476 708.852 519.916 708.827 520.348L708.051 533.976L695.959 527.643C686.256 522.56 675.597 519.563 664.667 518.842L656.446 518.3L656.446 509.675V509.675C656.377 477.681 646.08 446.539 627.059 420.813C609.383 396.906 585.034 378.833 557.147 368.817C550.265 378.66 540.638 386.343 529.391 390.854C515.801 396.306 500.72 396.776 486.817 392.182C472.914 387.588 461.083 378.225 453.416 365.75C445.749 353.275 442.741 338.49 444.922 324.011C447.104 309.532 454.335 296.29 465.338 286.628C476.34 276.966 490.405 271.506 505.045 271.212ZM534.262 298.705C526.109 292.104 515.885 288.599 505.397 288.809C494.909 289.019 484.833 292.931 476.951 299.853C469.069 306.775 463.889 316.261 462.326 326.634C460.763 337.006 462.918 347.598 468.411 356.535C473.903 365.472 482.379 372.179 492.339 375.47C502.299 378.762 513.102 378.425 522.838 374.519C532.574 370.614 540.616 363.392 545.541 354.13L548.956 347.706L555.908 349.853C590.066 360.405 619.956 381.602 641.211 410.349C660.978 437.086 672.313 469.049 673.863 502.151C679.918 503.066 685.868 504.556 691.631 506.599C690.888 467.312 677.667 429.249 653.84 397.937C629.391 365.808 595.113 342.547 556.225 331.696L550.975 330.231L549.948 324.878C547.971 314.577 542.415 305.306 534.262 298.705Z" fill="#6149F6"/>
<path d="M316.013 554.833C306.509 563.055 300.219 574.372 298.254 586.784C296.29 599.196 298.777 611.903 305.277 622.657C311.777 633.412 321.871 641.522 333.773 645.553C345.675 649.584 358.619 649.277 370.317 644.685C382.014 640.094 391.711 631.514 397.693 620.463C403.675 609.412 405.557 596.601 403.005 584.297C400.454 571.992 393.634 560.986 383.751 553.225C373.867 545.463 361.558 541.447 349 541.885C341.475 508.857 344.708 474.289 358.228 443.229C371.747 412.17 394.844 386.247 424.144 369.248L424.494 369.046C419.111 358.12 416.072 346.189 415.571 334.019C412.533 335.55 409.477 337.05 406.535 338.749C369.958 359.979 341.319 392.579 324.978 431.586C308.637 470.593 305.489 513.872 316.013 554.833Z" fill="white"/>
<path fill-rule="evenodd" clip-rule="evenodd" d="M297.746 627.211C290.173 614.679 287.274 599.873 289.563 585.41C291.564 572.766 297.418 561.097 306.258 551.961C296.769 510.653 300.452 467.36 316.862 428.187C333.944 387.411 363.882 353.332 402.118 331.14L402.135 331.129C404.925 329.519 407.813 328.069 410.432 326.755C410.832 326.554 411.226 326.357 411.613 326.162L423.803 320.021L424.364 333.659C424.815 344.603 427.548 355.333 432.389 365.158L436.03 372.549L428.56 376.861V376.861C400.887 392.919 379.066 417.407 366.297 446.743C354.431 474.005 350.954 504.128 356.223 533.287C368.189 534.325 379.656 538.821 389.186 546.305C400.702 555.349 408.649 568.174 411.623 582.511C414.596 596.849 412.403 611.776 405.433 624.654C398.462 637.531 387.163 647.528 373.533 652.879C359.902 658.229 344.819 658.587 330.95 653.89C317.081 649.193 305.32 639.743 297.746 627.211ZM306.947 588.161C305.307 598.522 307.383 609.13 312.809 618.107C318.235 627.085 326.661 633.855 336.596 637.22C346.532 640.585 357.337 640.328 367.102 636.496C376.866 632.663 384.961 625.5 389.955 616.275C394.948 607.05 396.519 596.356 394.389 586.085C392.259 575.814 386.566 566.626 378.316 560.147C370.066 553.668 359.791 550.315 349.307 550.681L342.036 550.935L340.42 543.841C332.478 508.983 335.891 472.499 350.159 439.719C363.43 409.231 385.443 383.433 413.336 365.54C411.1 359.839 409.416 353.942 408.303 347.929C374.652 368.216 348.298 398.697 333.095 434.988C317.495 472.226 314.49 513.541 324.536 552.645L325.893 557.924L321.771 561.49C313.838 568.353 308.587 577.801 306.947 588.161Z" fill="#6149F6"/>
<path d="M642.467 646.585C654.339 650.704 667.285 650.493 679.016 645.989C690.747 641.484 700.508 632.976 706.572 621.97C712.636 610.964 714.612 598.167 712.152 585.844C709.692 573.521 702.954 562.465 693.129 554.63C683.304 546.796 671.025 542.688 658.463 543.033C645.902 543.378 633.867 548.153 624.486 556.515C615.106 564.877 608.985 576.287 607.205 588.726C605.425 601.166 608.101 613.834 614.76 624.491C589.919 647.522 558.365 662.006 524.707 665.828C491.049 669.649 457.051 662.608 427.68 645.733L427.329 645.531C420.558 655.656 411.746 664.253 401.457 670.772C404.302 672.638 407.129 674.534 410.071 676.233C446.745 697.294 489.297 705.796 531.249 700.444C573.2 695.092 612.255 676.179 642.467 646.585Z" fill="white"/>
<path fill-rule="evenodd" clip-rule="evenodd" d="M714.279 626.215C707.213 639.04 695.84 648.953 682.17 654.202C670.219 658.791 657.187 659.556 644.854 656.469C613.825 685.34 574.491 703.797 532.362 709.172C488.507 714.766 444.026 705.879 405.688 683.862L405.67 683.852C402.88 682.241 400.181 680.465 397.734 678.854C397.36 678.608 396.992 678.365 396.63 678.128L385.216 670.642L396.747 663.336C406 657.474 413.925 649.742 420.013 640.637L424.593 633.789L432.063 638.101V638.101C459.805 654.038 491.924 660.692 523.714 657.082C553.256 653.728 581.083 641.677 603.7 622.534C598.616 611.653 596.776 599.474 598.493 587.478C600.567 572.983 607.7 559.688 618.63 549.945C629.56 540.201 643.584 534.636 658.221 534.234C672.858 533.832 687.166 538.619 698.615 547.748C710.063 556.877 717.915 569.761 720.782 584.12C723.648 598.479 721.345 613.39 714.279 626.215ZM675.861 637.772C685.654 634.012 693.802 626.91 698.864 617.722C703.926 608.534 705.576 597.852 703.522 587.565C701.469 577.278 695.844 568.049 687.642 561.509C679.44 554.969 669.19 551.54 658.704 551.828C648.218 552.116 638.172 556.102 630.342 563.083C622.511 570.063 617.401 579.587 615.915 589.971C614.43 600.355 616.663 610.931 622.222 619.827L626.077 625.997L620.742 630.943C594.525 655.25 561.222 670.536 525.699 674.57C492.661 678.321 459.313 672.156 429.871 656.947C426.051 661.733 421.786 666.141 417.135 670.111C451.53 689.11 491.104 696.693 530.134 691.713C570.184 686.604 607.466 668.549 636.308 640.297L640.202 636.483L645.351 638.269C655.261 641.708 666.068 641.532 675.861 637.772Z" fill="#6149F6"/>
<defs>
<linearGradient id="paint0_linear_193_103" x1="500" y1="148" x2="500" y2="852" gradientUnits="userSpaceOnUse">
<stop stop-color="#8E7CFF"/>
<stop offset="1" stop-color="#5A41F4"/>
</linearGradient>
</defs>
</svg>
