<svg width="1024" height="1024" viewBox="0 0 1024 1024" fill="none" xmlns="http://www.w3.org/2000/svg">
<rect width="1024" height="1024" fill="#509495"/>
<path d="M664.706 265.088C676.784 265.088 686.275 268.971 693.177 276.735C700.51 284.069 704.176 293.99 704.176 306.5V686.324C704.176 698.833 700.51 708.971 693.177 716.735C685.843 724.5 676.353 728.382 664.706 728.382C650.902 728.382 640.333 723.422 633 713.5L396.824 406.147V686.324C396.824 698.833 393.373 708.971 386.471 716.735C379.569 724.5 370.078 728.382 358 728.382C345.922 728.382 336.431 724.5 329.529 716.735C322.627 708.971 319.176 698.833 319.176 686.324V306.5C319.176 293.99 322.843 284.069 330.176 276.735C337.51 268.971 347.216 265.088 359.294 265.088C372.667 265.088 383.02 270.049 390.353 279.971L625.882 586.029V306.5C625.882 293.99 629.333 284.069 636.235 276.735C643.569 268.971 653.059 265.088 664.706 265.088Z" fill="white"/>
</svg>
