<svg width="1000" height="1000" viewBox="0 0 1000 1000" fill="none" xmlns="http://www.w3.org/2000/svg">
<rect width="1000" height="1000" fill="#6A1588"/>
<path d="M484.781 311.474V687H424.272L247.327 431.209H244.21V687H176.182V311.474H237.059L413.82 567.448H417.121V311.474H484.781ZM558.906 687V311.474H702.662C729.8 311.474 752.353 315.752 770.323 324.309C788.414 332.744 801.922 344.295 810.846 358.964C819.892 373.633 824.415 390.258 824.415 408.839C824.415 424.119 821.481 437.199 815.613 448.079C809.746 458.836 801.861 467.576 791.959 474.299C782.058 481.023 770.995 485.851 758.771 488.785V492.452C772.095 493.186 784.869 497.281 797.094 504.738C809.44 512.072 819.525 522.463 827.348 535.909C835.172 549.356 839.084 565.614 839.084 584.684C839.084 604.12 834.377 621.601 824.965 637.125C815.552 652.528 801.372 664.691 782.425 673.615C763.477 682.538 739.64 687 710.913 687H558.906ZM626.933 630.158H700.095C724.788 630.158 742.574 625.451 753.453 616.039C764.455 606.504 769.956 594.28 769.956 579.366C769.956 568.242 767.206 558.218 761.705 549.295C756.204 540.249 748.38 533.159 738.234 528.025C728.088 522.768 715.986 520.14 701.928 520.14H626.933V630.158ZM626.933 471.182H694.227C705.962 471.182 716.536 469.043 725.949 464.765C735.362 460.364 742.757 454.191 748.136 446.245C753.637 438.177 756.387 428.642 756.387 417.64C756.387 403.094 751.253 391.114 740.985 381.701C730.839 372.289 715.742 367.582 695.694 367.582H626.933V471.182Z" fill="white"/>
</svg>
