<svg width="1000" height="1000" viewBox="0 0 1000 1000" fill="none" xmlns="http://www.w3.org/2000/svg">
<rect width="1000" height="1000" fill="white"/>
<path d="M747.098 500L496.67 653.642L246.241 509.682L350.242 418.322L496.67 500L648.709 418.322L747.098 500Z" fill="#D8D8D8"/>
<mask id="mask0_6_29" style="mask-type:luminance" maskUnits="userSpaceOnUse" x="246" y="418" width="502" height="236">
<path d="M747.098 500L496.67 653.642L246.241 509.682L350.242 418.322L496.67 500L648.709 418.322L747.098 500Z" fill="white"/>
</mask>
<g mask="url(#mask0_6_29)">
<path d="M870 130H130V870H870V130Z" fill="#FFA0A0"/>
</g>
<path d="M267.79 438.333L253.571 430.208C212.143 406.535 212.143 346.798 253.571 323.125L469.405 199.792C488.363 188.958 511.637 188.958 530.595 199.792L746.429 323.125C787.857 346.798 787.857 406.535 746.429 430.208L732.21 438.333L746.429 446.458C787.857 470.132 787.857 529.868 746.429 553.542L732.21 561.667L746.429 569.792C787.857 593.465 787.857 653.202 746.429 676.875L530.595 800.208C511.637 811.042 488.363 811.042 469.405 800.208L253.571 676.875C212.143 653.202 212.143 593.465 253.571 569.792L267.79 561.667L253.571 553.542C212.143 529.868 212.143 470.132 253.571 446.458L267.79 438.333ZM670.063 473.846L530.595 553.542C511.637 564.375 488.363 564.375 469.405 553.542L329.937 473.846L284.167 500L500 623.333L715.833 500L670.063 473.846ZM329.937 597.179L284.167 623.333L500 746.667L715.833 623.333L670.063 597.179L530.595 676.875C511.637 687.708 488.363 687.708 469.405 676.875L329.937 597.179ZM500 253.333L284.167 376.667L500 500L715.833 376.667L500 253.333Z" fill="black"/>
<mask id="mask1_6_29" style="mask-type:luminance" maskUnits="userSpaceOnUse" x="222" y="191" width="556" height="618">
<path d="M267.79 438.333L253.571 430.208C212.143 406.535 212.143 346.798 253.571 323.125L469.405 199.792C488.363 188.958 511.637 188.958 530.595 199.792L746.429 323.125C787.857 346.798 787.857 406.535 746.429 430.208L732.21 438.333L746.429 446.458C787.857 470.132 787.857 529.868 746.429 553.542L732.21 561.667L746.429 569.792C787.857 593.465 787.857 653.202 746.429 676.875L530.595 800.208C511.637 811.042 488.363 811.042 469.405 800.208L253.571 676.875C212.143 653.202 212.143 593.465 253.571 569.792L267.79 561.667L253.571 553.542C212.143 529.868 212.143 470.132 253.571 446.458L267.79 438.333ZM670.063 473.846L530.595 553.542C511.637 564.375 488.363 564.375 469.405 553.542L329.937 473.846L284.167 500L500 623.333L715.833 500L670.063 473.846ZM329.937 597.179L284.167 623.333L500 746.667L715.833 623.333L670.063 597.179L530.595 676.875C511.637 687.708 488.363 687.708 469.405 676.875L329.937 597.179ZM500 253.333L284.167 376.667L500 500L715.833 376.667L500 253.333Z" fill="white"/>
</mask>
<g mask="url(#mask1_6_29)">
<path d="M870 130H130V870H870V130Z" fill="#7600FF"/>
</g>
</svg>
