<svg width="1000" height="1000" viewBox="0 0 1000 1000" fill="none" xmlns="http://www.w3.org/2000/svg">
<rect width="1000" height="1000" fill="white"/>
<path d="M739.562 578.778C764.962 611.531 774.989 674.364 732.209 709.791C701.461 735.191 665.366 747.223 625.26 736.528C617.907 734.523 610.555 731.849 603.202 728.507C584.486 720.485 568.443 723.828 555.075 738.533C540.369 754.575 522.321 767.944 504.274 779.308C470.184 801.366 433.42 799.36 399.33 781.313C366.577 763.934 353.208 732.517 355.213 696.422C356.55 664.337 358.556 632.252 366.577 600.836C378.609 553.377 399.998 510.598 440.773 479.85C469.515 458.46 502.268 448.433 537.695 449.77C589.165 449.102 631.276 468.486 667.371 503.245C692.103 527.308 717.504 551.372 739.562 578.778ZM614.565 401.643C641.971 380.922 651.329 351.511 651.997 318.089C652.666 292.02 645.981 268.625 631.944 247.235C611.891 217.824 585.154 199.108 547.722 205.124C511.626 211.14 491.574 235.872 481.547 269.962C472.189 303.384 476.868 336.137 493.579 366.216C519.648 415.012 575.128 431.054 614.565 401.643ZM358.556 467.818C404.677 467.818 434.757 442.418 442.11 404.317C452.136 353.516 433.42 311.405 393.982 280.657C369.919 261.941 340.508 253.92 310.428 267.288C281.686 279.989 266.98 304.052 263.638 334.132C258.959 374.906 272.328 409.664 301.07 439.075C319.118 457.123 341.176 467.15 358.556 467.818ZM753.599 325.442C744.909 324.774 736.22 327.447 727.53 330.789C674.056 352.848 648.655 429.049 679.403 478.513C699.456 511.266 735.551 521.293 770.31 503.913C818.437 479.85 840.495 406.322 812.421 360.2C799.721 338.811 780.336 325.442 753.599 325.442ZM255.617 465.144C218.185 458.46 184.095 481.187 176.742 517.95C164.71 576.104 216.848 639.605 276.338 639.605C311.097 639.605 336.497 618.884 343.182 584.125C353.208 531.988 311.765 475.171 255.617 465.144Z" fill="black"/>
</svg>
