<svg width="1000" height="1000" viewBox="0 0 1000 1000" fill="none" xmlns="http://www.w3.org/2000/svg">
<rect width="1000" height="1000" fill="#47396C"/>
<g clip-path="url(#clip0_19_116)">
<path d="M500.259 250C357.296 250 241 367.593 241 512.037C241 598.333 282.852 679.259 353.963 728.333L354.333 728.889C354.889 729.445 355.259 729.815 355.815 729.815L356.926 730.37C366.185 736.667 378.778 734.074 384.889 724.815C391 715.556 388.593 702.593 379.333 696.296L376.741 694.444C347.381 673.944 323.41 646.652 306.869 614.892C290.328 583.133 281.707 547.846 281.741 512.037C281.741 390.37 379.889 291.296 500.259 291.296C620.63 291.296 718.778 390.37 718.778 512.037C718.811 547.846 710.19 583.133 693.649 614.892C677.109 646.652 653.138 673.944 623.778 694.444L621.185 695.926C598.778 710.37 575.259 712.593 556.37 702.222C547.424 696.876 539.766 689.624 533.94 680.982C528.115 672.34 524.266 662.521 522.667 652.222C551.921 647.463 578.901 633.519 599.704 612.407C625.993 585.703 640.697 549.712 640.628 512.239C640.558 474.765 625.721 438.829 599.333 412.222C586.349 399.098 570.89 388.679 553.853 381.569C536.815 374.458 518.536 370.797 500.074 370.797C481.612 370.797 463.333 374.458 446.296 381.569C429.258 388.679 413.799 399.098 400.815 412.222C374.574 439.042 359.88 475.071 359.88 512.593C359.88 550.114 374.574 586.144 400.815 612.963C422.389 634.72 450.481 648.831 480.815 653.148C482.828 670.758 488.892 687.663 498.53 702.538C508.169 717.414 521.12 729.855 536.37 738.889C550.815 746.482 566 750.741 581.926 750.741C602.296 750.741 623.222 744.074 643.593 731.111L644.148 730.556C644.704 730 645.259 729.63 645.63 729.63L646.185 729.074C681.034 704.777 709.502 672.424 729.169 634.767C748.836 597.11 759.12 555.261 759.148 512.778C759.466 478.508 753.014 444.512 740.164 412.741C727.314 380.97 708.318 352.048 684.266 327.634C660.214 303.221 631.578 283.796 600.002 270.473C568.426 257.151 534.53 250.194 500.259 250ZM429.889 440.926C439.075 431.587 450.028 424.169 462.109 419.106C474.191 414.043 487.16 411.435 500.259 411.435C513.359 411.435 526.328 414.043 538.409 419.106C550.491 424.169 561.444 431.587 570.63 440.926C589.245 459.84 599.678 485.314 599.678 511.852C599.678 538.39 589.245 563.864 570.63 582.778C561.476 592.106 550.554 599.516 538.503 604.574C526.452 609.633 513.514 612.238 500.444 612.238C487.375 612.238 474.437 609.633 462.386 604.574C450.335 599.516 439.413 592.106 430.259 582.778C411.461 563.984 400.868 538.51 400.799 511.928C400.73 485.346 411.189 459.818 429.889 440.926Z" fill="white"/>
</g>
<defs>
<clipPath id="clip0_19_116">
<rect width="518.519" height="500" fill="white" transform="translate(241 250)"/>
</clipPath>
</defs>
</svg>
