<svg width="1000" height="1000" viewBox="0 0 1000 1000" fill="none" xmlns="http://www.w3.org/2000/svg">
<rect width="1000" height="1000" fill="white"/>
<g clip-path="url(#clip0_8_669)">
<path d="M507.765 794.748C406.644 751.919 309.808 672.752 229.215 567.024C204.471 534.562 164.124 463.934 152.902 433.436C129.081 368.7 129.258 322.484 153.49 279.696C192.273 211.212 249.9 173.802 314.43 175.217C336.707 175.705 372.195 185.301 389.25 195.448C432.452 221.15 471.536 268.898 497.465 327.653L508.876 353.511L506.454 373.137C500.29 423.078 509.675 463.919 531.827 483.543C557.479 506.27 594.331 511.493 651.385 500.489L674.317 496.067L711.526 506.063C805.489 531.31 851.125 565.78 861.738 619.536C873.748 680.369 858.802 720.627 807.409 765.874C742.462 823.055 657.672 838.953 560.425 812.186C542.375 807.217 518.678 799.37 507.765 794.748Z" fill="#65CB25" stroke="white" stroke-width="0.356642"/>
<path d="M552.065 509.54C519.138 491.969 495.523 459.278 487.834 420.62C483.395 398.308 482.907 359.571 486.6 322.709L487.962 309.117L509.642 343.88C556.22 418.563 616.957 467.723 703.031 500.406C719.001 506.47 732.413 511.991 732.836 512.674C734.355 515.127 670.492 523.699 643.868 524.616C614.282 525.635 567.973 518.03 552.065 509.54Z" fill="#008000" stroke="white" stroke-width="0.569522"/>
</g>
<defs>
<clipPath id="clip0_8_669">
<rect width="730.83" height="650" fill="white" transform="translate(135 175)"/>
</clipPath>
</defs>
</svg>
