<svg width="1237" height="1237" viewBox="0 0 1237 1237" fill="none" xmlns="http://www.w3.org/2000/svg">
<rect width="1237" height="1237" fill="white"/>
<path d="M640.881 973.703C588.107 973.703 539.058 965.321 493.734 948.558C449.031 931.794 410.227 908.201 377.321 877.778C344.414 846.734 318.648 810.413 300.022 768.815C282.017 727.216 273.014 681.892 273.014 632.843C273.014 583.174 282.017 537.85 300.022 496.872C318.648 455.274 344.414 419.263 377.321 388.84C410.227 357.797 449.031 333.893 493.734 317.129C539.058 300.366 588.107 291.984 640.881 291.984C694.276 291.984 743.325 300.366 788.028 317.129C832.731 333.893 871.536 357.797 904.442 388.84C937.348 419.263 962.804 455.274 980.809 496.872C999.436 537.85 1008.75 583.174 1008.75 632.843C1008.75 681.892 999.436 727.216 980.809 768.815C962.804 810.413 937.348 846.734 904.442 877.778C871.536 908.201 832.731 931.794 788.028 948.558C743.325 965.321 694.276 973.703 640.881 973.703ZM640.881 795.823C661.37 795.823 680.307 792.097 697.691 784.647C715.696 777.197 731.218 766.642 744.257 752.982C757.916 738.702 768.471 721.628 775.921 701.76C783.372 681.272 787.097 658.299 787.097 632.843C787.097 607.388 783.372 584.726 775.921 564.858C768.471 544.369 757.916 527.295 744.257 513.636C731.218 499.356 715.696 488.49 697.691 481.04C680.307 473.589 661.37 469.864 640.881 469.864C620.392 469.864 601.145 473.589 583.14 481.04C565.756 488.49 550.234 499.356 536.575 513.636C523.536 527.295 513.292 544.369 505.841 564.858C498.391 584.726 494.666 607.388 494.666 632.843C494.666 658.299 498.391 681.272 505.841 701.76C513.292 721.628 523.536 738.702 536.575 752.982C550.234 766.642 565.756 777.197 583.14 784.647C601.145 792.097 620.392 795.823 640.881 795.823Z" fill="#6D28D9"/>
<path d="M624.118 943.901C571.343 943.901 522.294 935.519 476.971 918.756C432.268 901.992 393.463 878.399 360.557 847.976C327.651 816.932 301.884 780.611 283.258 739.013C265.253 697.414 256.25 652.091 256.25 603.042C256.25 553.372 265.253 508.048 283.258 467.07C301.884 425.472 327.651 389.461 360.557 359.038C393.463 327.995 432.268 304.091 476.971 287.327C522.294 270.564 571.343 262.182 624.118 262.182C677.513 262.182 726.562 270.564 771.265 287.327C815.967 304.091 854.772 327.995 887.678 359.038C920.585 389.461 946.04 425.472 964.046 467.07C982.672 508.048 991.985 553.372 991.985 603.042C991.985 652.091 982.672 697.414 964.046 739.013C946.04 780.611 920.585 816.932 887.678 847.976C854.772 878.399 815.967 901.992 771.265 918.756C726.562 935.519 677.513 943.901 624.118 943.901ZM624.118 766.021C644.606 766.021 663.543 762.296 680.927 754.845C698.933 747.395 714.455 736.84 727.493 723.181C741.152 708.9 751.707 691.826 759.158 671.958C766.608 651.47 770.333 628.497 770.333 603.042C770.333 577.586 766.608 554.924 759.158 535.056C751.707 514.567 741.152 497.493 727.493 483.834C714.455 469.554 698.933 458.688 680.927 451.238C663.543 443.788 644.606 440.062 624.118 440.062C603.629 440.062 584.382 443.788 566.376 451.238C548.992 458.688 533.47 469.554 519.811 483.834C506.773 497.493 496.528 514.567 489.078 535.056C481.627 554.924 477.902 577.586 477.902 603.042C477.902 628.497 481.627 651.47 489.078 671.958C496.528 691.826 506.773 708.9 519.811 723.181C533.47 736.84 548.992 747.395 566.376 754.845C584.382 762.296 603.629 766.021 624.118 766.021Z" fill="#EA580C"/>
</svg>
