<svg width="200" height="200" viewBox="0 0 200 200" fill="none" xmlns="http://www.w3.org/2000/svg">
<rect width="200" height="200" fill="#030504"/>
<path d="M99.5 170.648C138.794 170.648 170.648 138.794 170.648 99.5C170.648 60.2061 138.794 28.352 99.5 28.352C60.2061 28.352 28.352 60.2061 28.352 99.5C28.352 138.794 60.2061 170.648 99.5 170.648Z" fill="#030504"/>
<path d="M99.5 35.4615C112.166 35.4615 124.547 39.2173 135.078 46.2539C145.609 53.2906 153.817 63.292 158.664 74.9935C163.511 86.695 164.779 99.5711 162.308 111.993C159.837 124.416 153.738 135.826 144.782 144.782C135.826 153.738 124.416 159.837 111.993 162.308C99.5711 164.779 86.6951 163.511 74.9936 158.664C63.292 153.817 53.2906 145.609 46.2539 135.078C39.2173 124.547 35.4615 112.166 35.4615 99.5C35.4827 82.5225 42.2364 66.2463 54.2414 54.2414C66.2464 42.2364 82.5225 35.4827 99.5 35.4615ZM99.5 28.352C85.4283 28.352 71.6726 32.5248 59.9723 40.3426C48.2721 48.1605 39.1529 59.2723 33.7679 72.2729C28.3828 85.2735 26.9739 99.5789 29.7191 113.38C32.4644 127.182 39.2406 139.859 49.1908 149.809C59.141 159.759 71.8184 166.536 85.6198 169.281C99.4211 172.026 113.727 170.617 126.727 165.232C139.728 159.847 150.84 150.728 158.657 139.028C166.475 127.327 170.648 113.572 170.648 99.5C170.648 80.6304 163.152 62.5336 149.809 49.1908C136.466 35.8479 118.37 28.352 99.5 28.352Z" fill="#00AEEF"/>
<path d="M99.5 28.352C113.572 28.352 127.328 32.5248 139.028 40.3426C150.728 48.1604 159.847 59.2722 165.232 72.2728C170.617 85.2734 172.026 99.5789 169.281 113.38C166.536 127.182 159.759 139.859 149.809 149.809C139.859 159.759 127.182 166.536 113.38 169.281C99.579 172.026 85.2735 170.617 72.2729 165.232C59.2723 159.847 48.1605 150.728 40.3426 139.028C32.5248 127.327 28.352 113.572 28.352 99.5C28.352 80.6304 35.848 62.5336 49.1908 49.1908C62.5336 35.8479 80.6304 28.352 99.5 28.352ZM99.5 26C84.9631 26 70.7526 30.3107 58.6656 38.387C46.5786 46.4633 37.1579 57.9424 31.5949 71.3728C26.0318 84.8031 24.5763 99.5815 27.4123 113.839C30.2483 128.097 37.2485 141.193 47.5277 151.472C57.8068 161.752 70.9033 168.752 85.1609 171.588C99.4185 174.424 114.197 172.968 127.627 167.405C141.058 161.842 152.537 152.421 160.613 140.334C168.689 128.247 173 114.037 173 99.5C172.979 80.0131 165.228 61.3304 151.449 47.5511C137.67 33.7718 118.987 26.0212 99.5 26Z" stroke="black" stroke-width="2.67273"/>
<path d="M128.9 113.746C128.429 113.587 128.006 113.311 127.671 112.944C126.572 111.646 125.843 110.077 125.559 108.4C126.49 108.277 127.431 108.527 128.178 109.095C128.797 109.68 129.205 110.453 129.34 111.294C129.475 112.134 129.33 112.996 128.927 113.746H128.9Z" fill="#00AEEF"/>
<path d="M136.063 93.2191C135.375 92.9796 134.621 93.0224 133.965 93.338C133.308 93.6535 132.804 94.2162 132.562 94.9029L127.109 110.191C126.901 110.783 126.901 111.428 127.11 112.02C127.318 112.611 127.722 113.114 128.256 113.445C128.789 113.775 129.419 113.914 130.042 113.837C130.664 113.761 131.242 113.474 131.68 113.024C131.953 112.742 132.163 112.405 132.294 112.035L137.72 96.7471C137.843 96.4066 137.898 96.0452 137.882 95.6835C137.865 95.3219 137.777 94.967 137.623 94.6393C137.469 94.3116 137.252 94.0174 136.985 93.7737C136.717 93.53 136.404 93.3415 136.063 93.2191Z" fill="#00AEEF"/>
<path d="M113.024 102.493L111.607 105.701L113.024 108.614C120.033 105.063 127.214 101.861 134.539 99.0189L134.352 93.1656C127.096 95.9267 119.978 99.0397 113.024 102.493ZM135.368 90.68C135.624 90.8574 135.843 91.0847 136.009 91.3482C136.741 92.3832 137.3 93.5294 137.667 94.7425C137.738 94.924 137.792 95.112 137.827 95.3038C137.93 95.9201 137.846 96.5531 137.586 97.1213L135.769 95.9185L135.047 91.2145L135.368 90.68Z" fill="#00AEEF"/>
<path d="M106.984 100.248C106.585 99.6408 105.962 99.2156 105.251 99.0654C104.54 98.9152 103.799 99.0522 103.188 99.4465C101.106 100.798 98.6676 101.496 96.1858 101.451C93.1825 101.541 90.2545 100.502 87.9806 98.5378C86.9919 97.7619 86.192 96.772 85.6411 95.6424C85.0903 94.5129 84.8027 93.2731 84.8 92.0163V72.452C84.8378 72.0695 84.7951 71.6833 84.6747 71.3183C84.5542 70.9533 84.3587 70.6176 84.1006 70.3327C83.8425 70.0479 83.5277 69.8202 83.1763 69.6644C82.8249 69.5086 82.4448 69.4281 82.0605 69.4281C81.6761 69.4281 81.296 69.5086 80.9446 69.6644C80.5932 69.8202 80.2784 70.0479 80.0203 70.3327C79.7623 70.6176 79.5667 70.9533 79.4462 71.3183C79.3258 71.6833 79.2831 72.0695 79.3209 72.452V92.0163C79.3111 94.069 79.7623 96.0976 80.6413 97.9526C81.5202 99.8076 82.8044 101.442 84.3991 102.734C87.6653 105.566 91.8637 107.089 96.1858 107.01C99.7372 107.027 103.214 105.995 106.182 104.044C106.794 103.649 107.224 103.028 107.38 102.317C107.535 101.606 107.402 100.862 107.01 100.248H106.984Z" fill="#00AEEF"/>
<path d="M107.545 127.403V59.7298C107.545 58.9997 107.255 58.2995 106.739 57.7832C106.222 57.2669 105.522 56.9769 104.792 56.9769C104.062 56.9769 103.362 57.2669 102.845 57.7832C102.329 58.2995 102.039 58.9997 102.039 59.7298V127.564C102.202 130.982 101.245 134.361 99.3129 137.185C98.6594 137.968 97.8529 138.609 96.9429 139.068C96.0328 139.528 95.0385 139.797 94.0209 139.858C92.8884 139.971 91.7447 139.856 90.657 139.521C89.5693 139.186 88.5594 138.637 87.6865 137.907C86.0627 136.286 85.0441 134.157 84.8009 131.876C84.5577 129.595 85.1046 127.299 86.3502 125.372C88.489 122.621 91.2086 120.376 94.3149 118.797L96.6134 117.434V110.993L95.2236 108.213C94.2683 110.32 93.0075 112.274 91.4818 114.013C87.646 115.991 84.3171 118.826 81.7531 122.298C79.8284 125.332 79.0014 128.934 79.4099 132.504C79.8184 136.074 81.4378 139.395 83.9982 141.916C86.5416 144.16 89.8277 145.379 93.2191 145.337C93.6467 145.337 94.0743 145.337 94.502 145.284C96.2738 145.158 98.0012 144.671 99.5778 143.853C101.154 143.035 102.547 141.903 103.669 140.526C106.409 136.706 107.775 132.072 107.545 127.377V127.403Z" fill="#00AEEF"/>
<path d="M134.673 90.3058C134.331 90.1832 133.968 90.1295 133.605 90.1479C133.242 90.1662 132.886 90.2563 132.558 90.4128C132.23 90.5693 131.937 90.7893 131.694 91.0599C131.451 91.3306 131.265 91.6465 131.145 91.9897L125.719 107.278C125.585 107.621 125.522 107.988 125.532 108.356C125.543 108.725 125.627 109.087 125.78 109.422C125.933 109.757 126.152 110.059 126.424 110.308C126.695 110.557 127.014 110.749 127.361 110.872C127.709 110.996 128.077 111.048 128.445 111.027C128.813 111.005 129.173 110.91 129.503 110.747C129.834 110.583 130.128 110.355 130.369 110.076C130.609 109.797 130.792 109.473 130.905 109.122L136.33 93.8338C136.453 93.4934 136.508 93.132 136.492 92.7703C136.475 92.4086 136.387 92.0538 136.233 91.7261C136.08 91.3984 135.863 91.1042 135.595 90.8605C135.327 90.6168 135.014 90.4283 134.673 90.3058Z" fill="white"/>
<path d="M111.607 99.5802V105.701C118.617 102.15 125.798 98.9479 133.123 96.1056L132.936 90.2524C125.68 93.0153 118.562 96.1282 111.607 99.5802ZM106.155 124.624V56.9502C106.155 56.2201 105.865 55.5199 105.349 55.0036C104.833 54.4873 104.132 54.1973 103.402 54.1973C102.672 54.1973 101.972 54.4873 101.456 55.0036C100.939 55.5199 100.649 56.2201 100.649 56.9502V97.3084C98.8268 98.2246 96.8087 98.6833 94.7693 98.6447C91.775 98.7284 88.8578 97.6892 86.5907 95.7315C85.5972 94.9583 84.7922 93.9695 84.2366 92.8398C83.681 91.7101 83.3893 90.4689 83.3835 89.21V69.6189C83.3835 68.8888 83.0934 68.1886 82.5771 67.6723C82.0609 67.156 81.3607 66.866 80.6305 66.866C79.9004 66.866 79.2002 67.156 78.6839 67.6723C78.1677 68.1886 77.8776 68.8888 77.8776 69.6189V89.21C77.8751 91.2603 78.3323 93.2851 79.2158 95.1353C80.0993 96.9855 81.3864 98.614 82.9825 99.9009C86.2487 102.733 90.4471 104.256 94.7693 104.177C96.7667 104.182 98.752 103.866 100.649 103.242V124.757C100.812 128.176 99.8553 131.554 97.9231 134.379C97.2665 135.165 96.4557 135.807 95.5409 136.267C94.626 136.727 93.6266 136.994 92.6044 137.052C91.47 137.161 90.3253 137.042 89.2375 136.702C88.1498 136.363 87.1408 135.809 86.27 135.074C84.6527 133.455 83.6382 131.331 83.3951 129.056C83.152 126.78 83.6949 124.49 84.9336 122.566C87.0696 119.805 89.7894 117.551 92.8984 115.964L95.1969 114.628V108.24C93.326 109.309 91.6422 110.298 90.0653 111.26C86.23 113.239 82.9013 116.074 80.3365 119.545C78.4118 122.579 77.5848 126.181 77.9934 129.751C78.4019 133.321 80.0212 136.643 82.5816 139.163C85.1182 141.401 88.3936 142.619 91.7758 142.584C92.2035 142.584 92.6578 142.558 93.0855 142.504C94.8552 142.382 96.5814 141.899 98.1579 141.086C99.7343 140.272 101.128 139.145 102.253 137.773C105.002 133.957 106.377 129.322 106.155 124.624Z" fill="white"/>
</svg>
