<svg width="776" height="776" viewBox="0 0 776 776" fill="none" xmlns="http://www.w3.org/2000/svg">
<rect width="776" height="776" fill="white"/>
<path d="M641.127 237.668C635.347 223.718 621.867 214.708 606.767 214.708H295.087C294.937 214.708 294.787 214.728 294.637 214.728C294.567 214.728 294.497 214.708 294.427 214.708C233.097 214.708 183.197 264.598 183.197 325.928C183.197 360.828 199.447 393.078 226.507 413.928L142.877 497.558C132.207 508.228 129.037 524.138 134.817 538.088C140.597 552.038 154.077 561.048 169.177 561.048H480.777C480.947 561.048 481.107 561.028 481.277 561.018C481.357 561.018 481.437 561.048 481.527 561.048C542.857 561.048 592.747 511.158 592.747 449.828C592.747 414.928 576.497 382.678 549.437 361.818L633.067 278.188C643.737 267.518 646.907 251.618 641.127 237.668ZM161.417 527.078C160.767 525.518 159.657 521.498 163.237 517.918L252.277 428.878C253.317 429.308 254.377 429.708 255.437 430.108C255.487 430.128 255.537 430.148 255.587 430.168C255.657 430.198 255.727 430.218 255.797 430.248C255.847 430.268 255.897 430.288 255.947 430.308L256.037 430.338C256.067 430.348 256.087 430.358 256.117 430.368L426.817 490.728L484.307 511.058C484.357 511.078 484.417 511.088 484.467 511.108C484.567 511.148 484.677 511.178 484.777 511.218C487.577 512.098 489.797 514.028 491.087 516.498C491.097 516.508 491.107 516.518 491.107 516.538C491.297 516.898 491.437 517.278 491.577 517.658C491.637 517.808 491.707 517.948 491.757 518.098C491.857 518.408 491.917 518.728 491.987 519.048C492.037 519.288 492.117 519.518 492.157 519.758C492.207 520.038 492.207 520.338 492.227 520.628C492.247 520.918 492.297 521.208 492.297 521.498C492.297 521.598 492.267 521.688 492.267 521.778C492.087 527.478 486.907 532.248 480.777 532.248H169.187C164.117 532.268 162.067 528.638 161.417 527.078ZM563.967 449.828C563.967 480.958 546.617 508.118 521.077 522.138C521.077 521.978 521.077 521.808 521.077 521.648C521.077 521.638 521.077 521.628 521.077 521.628C521.077 521.618 521.077 521.608 521.077 521.598C521.077 521.558 521.077 521.528 521.077 521.488C521.077 521.008 521.037 520.538 521.017 520.058C520.997 519.488 520.997 518.908 520.947 518.338C520.917 517.918 520.847 517.498 520.797 517.078C520.727 516.438 520.667 515.808 520.567 515.178C520.517 514.868 520.437 514.568 520.387 514.258C520.257 513.528 520.127 512.808 519.947 512.088C519.897 511.898 519.837 511.708 519.787 511.508C519.577 510.688 519.357 509.878 519.097 509.078C519.067 508.998 519.037 508.918 519.007 508.828C516.747 502.058 512.697 496.058 507.307 491.448C507.257 491.408 507.207 491.368 507.157 491.328C506.427 490.708 505.677 490.108 504.897 489.538C504.717 489.408 504.527 489.298 504.347 489.168C503.687 488.708 503.027 488.248 502.337 487.818C501.977 487.598 501.597 487.408 501.237 487.198C500.707 486.898 500.177 486.578 499.627 486.298C499.087 486.028 498.537 485.788 497.977 485.538C497.567 485.358 497.177 485.148 496.767 484.978C496.087 484.698 495.387 484.458 494.697 484.208C494.397 484.098 494.107 483.978 493.807 483.878L266.577 403.528L266.547 403.518L266.487 403.498L265.987 403.318C265.927 403.298 265.857 403.268 265.797 403.248C262.507 402.028 259.197 400.548 255.967 398.838C228.837 384.498 211.987 356.558 211.987 325.928C211.987 294.798 229.337 267.638 254.877 253.608C254.877 253.828 254.867 254.038 254.867 254.258C254.867 254.398 254.877 254.528 254.887 254.668C254.897 255.188 254.927 255.708 254.947 256.228C254.977 256.808 254.997 257.398 255.057 257.978C255.107 258.468 255.167 258.938 255.227 259.428C255.307 260.038 255.387 260.658 255.497 261.258C255.577 261.678 255.657 262.098 255.747 262.518C255.887 263.178 256.037 263.838 256.207 264.488C256.297 264.838 256.397 265.178 256.507 265.518C256.717 266.228 256.947 266.938 257.187 267.638C257.287 267.918 257.387 268.188 257.497 268.458C257.787 269.208 258.087 269.948 258.417 270.678C258.517 270.898 258.617 271.108 258.717 271.328C259.087 272.098 259.477 272.848 259.887 273.598C259.987 273.768 260.077 273.948 260.177 274.118C260.617 274.888 261.087 275.628 261.577 276.368C261.677 276.508 261.767 276.658 261.867 276.798C262.377 277.538 262.917 278.258 263.477 278.958C263.587 279.088 263.687 279.228 263.797 279.358C264.367 280.048 264.957 280.718 265.567 281.368C265.687 281.498 265.807 281.638 265.937 281.768C266.547 282.398 267.177 282.998 267.827 283.588C267.977 283.728 268.127 283.868 268.277 284.008C268.907 284.568 269.567 285.088 270.247 285.608C270.437 285.758 270.617 285.908 270.807 286.048C271.457 286.528 272.127 286.978 272.817 287.418C273.047 287.568 273.277 287.728 273.517 287.878C274.177 288.288 274.857 288.658 275.547 289.038C275.827 289.188 276.087 289.348 276.367 289.498C277.057 289.848 277.777 290.168 278.487 290.478C278.777 290.608 279.067 290.748 279.367 290.878C280.307 291.258 281.267 291.608 282.247 291.918C282.327 291.948 282.407 291.978 282.487 292.008L327.157 307.808L510.297 372.588C510.377 372.618 510.467 372.658 510.517 372.668C513.727 373.878 516.927 375.308 519.997 376.938C547.117 391.258 563.967 419.198 563.967 449.828ZM612.717 257.838L523.667 346.888C522.727 346.498 521.777 346.128 520.837 345.778C520.827 345.778 520.817 345.768 520.817 345.768C520.807 345.768 520.797 345.758 520.787 345.758C520.757 345.748 520.717 345.728 520.687 345.718C520.577 345.678 520.467 345.628 520.357 345.588C520.287 345.558 520.217 345.538 520.157 345.518C520.147 345.518 520.137 345.508 520.137 345.508L519.997 345.458C519.577 345.308 519.167 345.158 518.747 345.008L291.837 264.758C291.647 264.688 291.457 264.628 291.257 264.568C290.667 264.388 290.107 264.158 289.577 263.888C289.447 263.828 289.337 263.738 289.207 263.668C288.807 263.448 288.417 263.218 288.057 262.958C287.947 262.878 287.847 262.778 287.737 262.688C287.387 262.408 287.037 262.118 286.727 261.798C286.637 261.708 286.557 261.598 286.467 261.498C286.167 261.168 285.877 260.818 285.617 260.448C285.537 260.338 285.467 260.208 285.397 260.088C285.157 259.718 284.937 259.348 284.747 258.948C284.677 258.798 284.617 258.638 284.557 258.488C284.397 258.118 284.247 257.738 284.137 257.338C284.077 257.138 284.037 256.928 283.987 256.728C283.907 256.368 283.827 256.008 283.777 255.648C283.747 255.398 283.727 255.138 283.717 254.878C283.697 254.568 283.687 254.258 283.697 253.948C283.707 253.558 283.757 253.178 283.817 252.798C283.867 252.438 283.907 252.068 284.007 251.718C284.057 251.518 284.127 251.338 284.187 251.148C285.617 246.758 290.057 243.488 295.117 243.488H606.797C611.867 243.488 613.917 247.118 614.567 248.678C615.187 250.238 616.297 254.258 612.717 257.838Z" fill="black"/>
</svg>
